#!OML:ASF G:\JayActor3\Patient Classification 1\Patient 1\Session 5\male.ASF
:FULLY-SPECIFIED
:DEGREES
578
root 7.39391 17.5364 -6.09448 577.818 -88.5348 -579.427
lowerback 3.26419 -0.333607 -0.383529
upperback 1.13578 -0.489799 -1.43903
thorax -0.674842 -0.252191 -1.24061
lowerneck -5.68186 0.0900229 2.14175
upperneck 7.41611 -0.210537 1.26422
head 3.39089 -0.00612099 0.0274063
rclavicle 7.442e-015 1.98785e-015
rhumerus -31.8341 -7.83416 -86.2851
rradius 24.538
rwrist 4.99796
rhand -19.052 -7.41645
rfingers 7.12502
rthumb 7.25494 -37.2721
lclavicle 7.442e-015 1.98785e-015
lhumerus -30.9738 5.44013 81.5665
lradius 32.3347
lwrist 21.5098
lhand -18.4668 12.1312
lfingers 7.12502
lthumb 7.81977 41.9666
rfemur -20.446 4.42869 18.5833
rtibia 53.6907
rfoot -11.3553 -12.1893
rtoes -6.29108
lfemur -2.70822 13.6697 -24.5811
ltibia 25.8748
lfoot 0.9707 -4.55643
ltoes -29.8045
579
root 7.27233 17.5371 -6.09952 585.068 -88.5674 -586.615
lowerback 3.3404 -0.374199 -0.553045
upperback 1.14815 -0.551165 -1.45362
thorax -0.704521 -0.283374 -1.15766
lowerneck -5.67199 0.0868449 2.12041
upperneck 7.31383 -0.210167 1.27216
head 3.35347 -0.00700231 0.033676
rclavicle -1.16786e-015 1.31198e-014
rhumerus -31.8282 -7.94802 -86.192
rradius 24.5493
rwrist 4.99762
rhand -19.0555 -7.3911
rfingers 7.12502
rthumb 7.25161 -37.2468
lclavicle -1.16786e-015 1.31198e-014
lhumerus -30.7029 5.12664 81.6637
lradius 32.7501
lwrist 21.6229
lhand -18.5552 12.4112
lfingers 7.12502
lthumb 7.73447 42.2497
rfemur -21.4968 4.54834 18.3995
rtibia 52.8729
rfoot -11.5415 -12.1022
rtoes -6.41418
lfemur -1.93191 13.8293 -24.5612
ltibia 25.2037
lfoot 0.915935 -4.78831
ltoes -29.8164
580
root 7.14984 17.5381 -6.10504 591.882 -88.5909 -593.351
lowerback 3.39399 -0.409792 -0.700878
upperback 1.16131 -0.604893 -1.46489
thorax -0.720491 -0.310641 -1.08385
lowerneck -5.66808 0.0800984 2.09949
upperneck 7.2101 -0.214784 1.28061
head 3.31674 -0.010298 0.0397981
rclavicle -3.66509e-015 -5.56597e-015
rhumerus -31.814 -8.07615 -86.1019
rradius 24.5418
rwrist 4.99373
rhand -19.0839 -7.33296
rfingers 7.12502
rthumb 7.22412 -37.1896
lclavicle -3.66509e-015 -5.56597e-015
lhumerus -30.4257 4.80848 81.7574
lradius 33.139
lwrist 21.7204
lhand -18.6534 12.6753
lfingers 7.12502
lthumb 7.63966 42.5173
rfemur -22.5169 4.69735 18.237
rtibia 51.9555
rfoot -11.5792 -11.8428
rtoes -6.52951
lfemur -1.1252 14.036 -24.5047
ltibia 24.451
lfoot 0.877623 -5.06599
ltoes -29.787
581
root 7.0265 17.5389 -6.11099 598.562 -88.5967 -599.937
lowerback 3.42532 -0.441724 -0.844343
upperback 1.17265 -0.653297 -1.47592
thorax -0.72559 -0.335207 -1.0126
lowerneck -5.66553 0.0699415 2.07815
upperneck 7.10856 -0.224136 1.28993
head 3.28108 -0.0159009 0.0460566
rclavicle 4.74598e-015 7.15625e-015
rhumerus -31.7988 -8.20389 -86.0187
rradius 24.5202
rwrist 4.98184
rhand -19.1323 -7.24981
rfingers 7.12502
rthumb 7.17748 -37.1081
lclavicle 4.74598e-015 7.15625e-015
lhumerus -30.1569 4.4891 81.8445
lradius 33.5063
lwrist 21.8006
lhand -18.7318 12.8852
lfingers 7.12502
lthumb 7.56405 42.7299
rfemur -23.5083 4.8668 18.0784
rtibia 50.9547
rfoot -11.4708 -11.44
rtoes -6.70381
lfemur -0.292276 14.289 -24.4296
ltibia 23.6272
lfoot 0.856378 -5.38164
ltoes -29.6969
582
root 6.90223 17.5392 -6.11737 604.743 -88.5942 -606.013
lowerback 3.43517 -0.469495 -0.973314
upperback 1.18565 -0.695199 -1.4851
thorax -0.716855 -0.356504 -0.948014
lowerneck -5.67092 0.0568531 2.05621
upperneck 7.01039 -0.237975 1.30288
head 3.24815 -0.0235411 0.0533936
rclavicle 1.78906e-015 6.36111e-015
rhumerus -31.7809 -8.32517 -85.9454
rradius 24.49
rwrist 4.95918
rhand -19.1945 -7.15018
rfingers 7.12502
rthumb 7.11738 -37.0105
lclavicle 1.78906e-015 6.36111e-015
lhumerus -29.8813 4.18093 81.9252
lradius 33.8379
lwrist 21.8683
lhand -18.8013 13.0595
lfingers 7.12502
lthumb 7.49697 42.9067
rfemur -24.4684 5.05715 17.9335
rtibia 49.8804
rfoot -11.2265 -10.9289
rtoes -6.74848
lfemur 0.566778 14.5805 -24.3271
ltibia 22.7406
lfoot 0.854215 -5.7233
ltoes -29.5675
